<?xml version="1.0" encoding="utf-8"?>
<!-- Generator: Adobe Illustrator 23.0.1, SVG Export Plug-In . SVG Version: 6.00 Build 0)  -->
<svg version="1.1"
	 id="svg8" xmlns:cc="http://creativecommons.org/ns#" xmlns:dc="http://purl.org/dc/elements/1.1/" xmlns:inkscape="http://www.inkscape.org/namespaces/inkscape" xmlns:rdf="http://www.w3.org/1999/02/22-rdf-syntax-ns#" xmlns:sodipodi="http://sodipodi.sourceforge.net/DTD/sodipodi-0.dtd" xmlns:svg="http://www.w3.org/2000/svg"
	 xmlns="http://www.w3.org/2000/svg" xmlns:xlink="http://www.w3.org/1999/xlink" x="0px" y="0px" width="246px" height="300.631px"
	 viewBox="0 0 246 300.631" enable-background="new 0 0 246 300.631" xml:space="preserve">
<g>
	<path fill-rule="evenodd" clip-rule="evenodd" fill="#CC0000" d="M5.09,265.432h3.246l10.51,19.608l10.515-19.608h3.246
		l-13.762,25.787L5.09,265.432z M0,265.432c2.616,0,3.879,1.175,5.09,3.384l13.756,25.688l13.759-25.691
		c1.211-2.206,2.473-3.384,5.09-3.384l-18.846,35.202L0.003,265.432H0z M68.758,282.591c0-5.835-4.699-10.592-10.463-10.592
		c-5.767,0-10.466,4.757-10.466,10.592c0,5.833,4.699,10.589,10.466,10.589c5.764,0,10.463-4.757,10.463-10.592 M45.117,282.588
		c0-7.401,5.86-13.332,13.178-13.332c7.315,0,13.178,5.932,13.178,13.332c0,7.404-5.863,13.338-13.178,13.338
		C50.977,295.926,45.117,289.992,45.117,282.588 M73.215,282.588c0-8.333-6.685-15.099-14.92-15.099
		c-8.237,0-14.923,6.768-14.923,15.099c0,8.336,6.685,15.101,14.923,15.101C66.53,297.69,73.215,290.922,73.215,282.588
		 M40.66,282.588c0-9.852,7.896-17.844,17.635-17.844c9.737,0,17.635,7.992,17.635,17.844c0,9.855-7.899,17.847-17.635,17.847
		C48.556,300.435,40.66,292.443,40.66,282.588 M94.59,284.698l8.768-16.177c1.018-1.865,2.421-3.09,4.941-3.09l-10.997,20.197
		v14.119H94.59C94.59,299.747,94.59,284.698,94.59,284.698z M84.22,265.432h3.246l6.251,11.665l6.248-11.665h3.246l-9.494,17.6
		L84.22,265.432z M90.133,299.747v-14.119l-10.999-20.197c2.52,0,3.926,1.224,4.944,3.087l8.768,16.177v15.052
		C92.845,299.747,90.133,299.747,90.133,299.747z M126.729,273.96l13.756,25.787h-3.246l-10.51-19.608l-10.51,19.608h-3.249
		L126.729,273.96z M126.729,264.548l18.846,35.199c-2.614,0-3.876-1.175-5.09-3.384l-13.756-25.688l-13.759,25.691
		c-1.211,2.206-2.471,3.384-5.087,3.384L126.729,264.548z M155.625,282.591c0,5.833,4.699,10.589,10.466,10.589
		c2.468,0,4.746-0.883,6.54-2.306v-4.559h-7.946l1.502-2.746h9.494v8.138c-2.762,2.795-5.667,4.218-9.591,4.218
		c-7.318,0-13.178-5.934-13.178-13.338c0-7.401,5.86-13.332,13.178-13.332c2.517,0,4.746,0.688,6.782,1.909l-1.31,2.405
		c-1.646-1.017-3.54-1.56-5.475-1.568c-5.764,0-10.463,4.754-10.463,10.587L155.625,282.591z M180.188,279.061v14.265
		c-3.246,4.314-8.333,7.109-14.097,7.109c-9.739,0-17.635-7.992-17.635-17.847c0-9.852,7.896-17.844,17.635-17.844
		c3.246,0,6.298,0.88,8.914,2.451c-0.825,1.376-1.986,1.863-3.973,1.128c-1.552-0.589-3.15-0.834-4.941-0.834
		c-8.237,0-14.923,6.768-14.923,15.099c0,8.336,6.685,15.101,14.923,15.101c4.457,0,8.573-1.912,11.335-5.247v-10.639h-10.32
		l1.502-2.743C168.608,279.061,180.188,279.061,180.188,279.061z M198.547,292.495h13.855v2.743h-16.568v-11.767h11.288
		l-1.453,2.746h-7.123v6.276V292.495z M195.834,269.941h16.568v2.746h-13.855v6.273h10.997l-1.502,2.746h-12.207
		C195.834,281.705,195.834,269.941,195.834,269.941z M191.377,265.429h21.025c0,1.865-1.598,2.746-3.731,2.746H194.09v28.827h14.581
		c2.666,0,3.731,1.326,3.731,2.746h-21.025v-34.316V265.429z M223.955,275.088c0-5.736,4.652-10.345,10.466-10.345
		c3.054,0,6.201,0.933,8.672,3.09c-0.726,1.42-1.89,1.667-3.874,0.735c-1.461-0.723-3.072-1.092-4.702-1.078
		c-4.6,0-7.846,3.384-7.846,7.45c0,4.611,3.923,6.619,7.946,8.237c3.824,1.521,6.928,3.09,6.928,6.864
		c0,3.285-3.246,5.885-7.027,5.885c-3.874,0-7.412-1.962-9.882-4.413l1.26-2.402c1.89,2.058,5.475,4.069,8.576,4.069
		c2.614,0,4.361-1.178,4.361-3.09c0-1.766-1.651-2.696-5.571-4.363c-4.022-1.717-9.302-3.97-9.302-10.639 M246,290.091
		c0,6.031-5.717,10.345-11.676,10.345c-4.988,0-8.768-2.008-11.918-4.853c0.776-1.326,2.471-1.422,3.973-0.393
		c2.278,1.568,4.795,2.504,8.138,2.504c4.556,0,8.771-3.288,8.771-7.651c0-4.952-3.926-6.765-8.141-8.482
		c-3.535-1.42-6.732-3.136-6.732-6.666c0-3.09,2.614-5.736,6.102-5.736c2.182,0,4.264,0.784,6.493,2.449l-1.307,2.355
		c-1.94-1.618-3.632-2.058-5.186-2.058c-1.937,0-3.39,1.078-3.39,2.842c0,1.568,1.453,2.795,5.137,4.363
		C240.621,280.97,246,283.078,246,290.091"/>
	<g id="Page-1">
		<g id="VV-Logo-Stacked_type" transform="translate(-23.000000, 0.000000)">
			<g id="Group_1_" transform="translate(23.000000, 0.000000)">
				<path id="Shape_1_" fill="#CC0000" d="M246,36.347h-10.96c-12.085,0.187-22.67,6.839-28.385,16.581l-83.749,149.043
					L39.064,52.928c-5.714-9.743-16.206-16.394-28.291-16.581H0l123,218.833L246,36.347z"/>
				<polygon fill="#CC0000" points="227.452,0 18.361,0 123,185.858 				"/>
				
					<linearGradient id="SVGID_1_" gradientUnits="userSpaceOnUse" x1="-828.5323" y1="689.5468" x2="-827.8201" y2="689.7714" gradientTransform="matrix(111.7 0 0 -198.4 92617.5781 136899.0938)">
					<stop  offset="0.08" style="stop-color:#A40000"/>
					<stop  offset="0.65" style="stop-color:#CC0000"/>
				</linearGradient>
				<polygon fill="url(#SVGID_1_)" points="122.906,0 18.361,0 123,185.858 				"/>
				<path fill="#FFFFFF" d="M174.898,47.776h-0.094c-0.094,0.281-0.375,0.468-0.375,0.843c0,0.094-0.187,0.187-0.187,0.281
					c-0.281,0.468-0.656,0.749-1.03,1.03c-0.281,0.187-0.468,0.375-0.749,0.468c-0.843,0.468-1.686,0.749-2.623,1.03
					c-1.03,0.375-2.155,0.656-3.185,1.124c-1.124,0.375-2.248,0.937-3.279,1.405c-0.468,0.187-0.937,0.468-1.312,0.656
					c-1.499,0.843-3.091,1.593-4.59,2.436c-0.656,0.375-1.218,0.656-1.874,1.03c-0.281,0.187-0.656,0.281-0.937,0.468
					c-0.468,0.281-1.03,0.562-1.499,0.843c-0.749,0.375-1.405,0.843-2.155,1.218c-0.749,0.468-1.593,0.937-2.342,1.405
					c-0.656,0.375-1.311,0.749-1.967,1.124c-0.656,0.375-1.218,0.749-1.874,1.124c-0.843,0.562-1.78,1.03-2.623,1.593
					c-0.187,0.094-0.281,0.281-0.375,0.375c-0.187,0.094-0.281,0.187-0.375,0.281c-0.468,0.187-0.749,0.468-1.124,0.749
					c-0.562,0.375-1.218,0.843-1.78,1.218c-0.187,0.094-0.375,0.281-0.468,0.468c-0.094,0.187-0.281,0.187-0.468,0.375
					c-0.187,0.094-0.375,0.281-0.281,0.562c0,0.187,0,0.375-0.094,0.562c0,0.187,0,0.375,0,0.656c0,0.094,0,0.187,0.094,0.281
					c-0.094,0.094-0.094,0.187-0.187,0.375c0.281,0.187,0.094,0.468,0,0.749c0.187,0.187,0.187,0.375,0.094,0.656
					c-0.094,0.281-0.281,0.468,0,0.749c0.094,0.094,0,0.281-0.187,0.187c0,0.094,0,0.187,0.094,0.281
					c0.094,0.187,0.094,0.375,0,0.562v0.094c0.187,0.375,0,0.749,0,1.124c0,0.375-0.094,0.749,0,1.124c0,0.094,0,0.281,0,0.375
					c0,0.094,0.094,0.281-0.094,0.375c-0.094,0-0.094,0.187,0,0.281c0.094,0.094,0.094,0.375,0.094,0.468
					c-0.094,0.562,0,1.218-0.094,1.78c0,0.187,0,0.375,0,0.656c0,0.187-0.094,0.281,0.094,0.375v0.094
					c-0.094,0.281-0.094,0.562-0.094,0.749c0,0.281,0,0.562,0.094,0.843c-0.468,0.094-0.187,0.468-0.281,0.749
					c0.094,0.094,0.375,0.094,0.281,0.375c-0.094,0-0.187,0-0.281,0.094c0.094,0.094,0.187,0.187,0.281,0.375h-0.094
					c0.281,0.468,0,0.749-0.187,1.124c0.094,0.187,0.187,0.468,0.281,0.656s0.094,0.281-0.094,0.375
					c-0.187,0.094-0.281,0.281-0.187,0.468c0.094,0.187,0.187,0.281,0.187,0.468c-0.094,0-0.187,0.094-0.281,0.094
					c0,0.187,0,0.281,0,0.562c0.094,0,0.187-0.094,0.187-0.094c0.094,0.094,0.094,0.281,0.094,0.375
					c-0.094,0-0.094,0.094-0.187,0.094c0.094,0.187,0.281,0.375-0.094,0.562c0.187,0.187,0.281,0.281,0.468,0.468
					c-0.094,0.094-0.094,0.281-0.187,0.468c0.094,0,0.187,0,0.281,0.094c-0.094,0.094-0.281,0.281,0,0.375l0.094,0.094
					c-0.094,0.281,0.187,0.562,0,0.843c0,0-0.094,0-0.187-0.094c0.094,0.187,0.094,0.468,0,0.656c0,0.094,0.094,0.281,0.187,0.375
					c0.094-0.094,0.187-0.094,0.281-0.187c0,0.187,0.094,0.281,0.094,0.468c0,0.281,0.094,0.562,0.187,0.749
					c0.094,0.094,0.094,0.281,0,0.375c-0.094,0.094-0.187,0.281-0.281,0.375c0,0,0.094,0.094,0.187,0.187
					c-0.094,0-0.187,0.094-0.281,0.094c0,0.187,0,0.375,0,0.562c0,0.094,0.094,0.094,0.187,0.187c0,0,0.094-0.094,0.187-0.187
					c-0.094,0.281,0.468,0.281,0.187,0.562c0.094,0.094,0.187,0.094,0.281,0.187c-0.281,0.094-0.281,0.281-0.375,0.468
					c0,0.187-0.094,0.187-0.187,0.281c0,0.187,0.468,0.187,0.281,0.468c0.187,0.094,0.281,0.094,0.375,0.187
					c-0.187,0.187-0.375,0.281-0.281,0.562l-0.094,0.094c-0.281,0.187-0.187,0.281,0.094,0.375l0.094,0.094
					c-0.094,0.094-0.281,0.187-0.375,0.281c-0.094,0.094-0.094,0.281-0.187,0.468c-0.094,0.187-0.281,0.375-0.468,0.562
					c-0.375,0.281-0.749,0.468-1.124,0.656h-1.312c-0.094,0-0.094-0.094-0.187-0.094c-1.03-0.281-1.686-0.843-1.967-1.874
					c-0.187-0.843-0.375-1.686-0.375-2.529c0-0.562,0.094-1.124,0.094-1.78c0-0.656,0-1.405,0-2.061c0-0.281,0-0.562,0-0.843
					c0-0.749,0-1.593,0.094-2.342c0.094-0.562,0.094-1.218,0-1.78c0-0.094,0-0.281,0-0.375c0-0.281,0-0.468,0-0.749
					c0-0.281,0-0.656,0-0.937c0-0.468,0.094-0.937,0-1.312v-0.187c0.187-0.094,0.094-0.281,0.094-0.468v-4.028V75.13
					c0-0.562,0-1.218,0-1.78v-0.937c-0.375,0.281-0.749,0.468-1.124,0.656c-0.656,0.468-1.312,0.937-1.967,1.499
					c-0.656,0.562-1.405,1.03-2.061,1.593c-0.281,0.281-0.656,0.562-1.03,0.749c-0.562,0.375-1.124,0.843-1.593,1.312
					c-0.562,0.468-1.124,0.937-1.78,1.499c-0.843,0.656-1.686,1.312-2.436,1.967c-0.843,0.749-1.686,1.405-2.529,2.155
					c-0.562,0.468-1.218,1.03-1.874,1.499c-0.094,0.094-0.187,0.187-0.281,0.281c-0.187,0.187-0.468,0.375-0.656,0.656
					c-0.187,0.187-0.375,0.468-0.656,0.656c-0.375,0.375-0.749,0.656-1.124,0.937c-0.375,0.375-0.749,0.749-1.124,1.124
					c-0.281,0.187-0.468,0.468-0.749,0.656c-0.094,0.094-0.187,0.281-0.281,0.375c-0.094,0.187-0.281,0.281-0.375,0.375
					c-0.187,0.187-0.375,0.375-0.468,0.468c-0.656,0.656-1.218,1.312-1.874,1.967c-0.468,0.468-0.937,0.937-1.311,1.405
					c-0.094,0.094-0.187,0.187-0.281,0.281c-0.187,0.187-0.281,0.281-0.468,0.468c-0.094,0.094-0.094,0.094-0.187,0.187
					c-0.468,0.468-1.03,0.937-1.499,1.405c-0.281,0.281-0.562,0.562-0.843,0.843c-0.281,0.281-0.562,0.468-1.03,0.468
					c-0.562,0-1.124,0-1.686-0.187c-0.843-0.375-1.312-1.03-1.405-1.967c0-0.281-0.094-0.562,0-0.843
					c0.094-0.187,0.094-0.375,0.187-0.562c0.187-0.281,0.375-0.562,0.562-0.843c0.749-0.937,1.593-1.78,2.436-2.623
					c0.468-0.468,0.937-0.937,1.405-1.405c0.843-0.749,1.593-1.499,2.342-2.248c1.311-1.124,2.623-2.248,3.934-3.372
					c0.656-0.562,1.312-1.124,1.967-1.686c0.468-0.375,0.843-0.843,1.312-1.218c0.375-0.375,0.843-0.656,1.218-0.937
					c0.656-0.468,1.218-1.03,1.874-1.499c0.375-0.281,0.749-0.562,1.03-0.843c0.468-0.375,0.937-0.749,1.405-1.124
					c0.281-0.187,0.562-0.468,0.749-0.656c0.562-0.375,1.124-0.749,1.686-1.218c0.843-0.656,1.686-1.218,2.529-1.874
					c0.562-0.375,1.03-0.749,1.593-1.124c0.468-0.375,1.03-0.749,1.499-1.124c0.843-0.656,1.686-1.312,2.623-1.967
					c0.656-0.468,1.311-0.937,1.967-1.405c0-0.468,0-0.937,0-1.499c0-0.281,0-0.562,0-0.843c0-0.094,0-0.187-0.094-0.187
					c-0.094,0-0.187,0-0.281,0.094c-0.468,0.281-0.843,0.656-1.311,0.937h-0.094c-0.281,0.094-0.562,0.094-0.843,0.281
					c-0.281,0.094-0.562,0.281-0.843,0.187c-0.281,0-0.656,0.094-0.937,0.187c-0.656,0.094-1.405,0.094-2.061-0.094
					c-0.843-0.281-1.499-0.843-1.874-1.686c-0.281-0.656-0.375-1.405-0.375-2.155c0-0.937,0-1.874,0-2.81
					c0-0.281-0.094-0.656-0.094-0.937c0-0.187,0.094-0.375,0.094-0.656c0-0.375,0.094-0.749,0.094-1.124
					c0-0.749,0.094-1.405,0.281-2.155c0.094-0.749,0.281-1.499,0.468-2.155c0.187-0.749,0.468-1.499,0.937-2.155
					c0.468-0.749,1.03-1.499,1.499-2.155c0.375-0.468,0.749-0.749,1.218-1.03c0.094,0,0.187-0.094,0.187-0.094
					c0.562-0.562,1.311-0.656,2.061-0.843c0.281,0,0.562,0,0.843,0.187c0.281,0.187,0.375,0.562,0.375,0.843
					c0,0.375-0.187,0.656-0.187,1.03c0,0.281-0.187,0.468-0.375,0.656c-0.094,0.281-0.375,0.468-0.562,0.656
					c-0.094,0-0.094,0.094-0.187,0.187c-0.187,0.281-0.281,0.562-0.562,0.843v0.094c0,0.375-0.281,0.562-0.468,0.937
					c0,0.094-0.094,0.187-0.094,0.281c0,0.281-0.094,0.562-0.281,0.749c-0.094,0.094-0.094,0.187-0.094,0.281
					c-0.094,0.375-0.187,0.749-0.281,1.124c0,0.094-0.094,0.187-0.094,0.375c-0.094,0.375-0.187,0.749-0.094,1.03
					c0,0.094,0.094,0.187,0.094,0.187c0.094,0.187,0.094,0.375,0,0.562c-0.094,0.094-0.094,0.281-0.094,0.468
					c0,0.281-0.094,0.656-0.094,0.937c0,0.187,0,0.375,0,0.562c0,0.094,0,0.187,0,0.187c-0.187,0.375-0.094,0.749-0.094,1.124
					c0,0.187,0,0.375,0,0.656c0,0.375,0.187,0.749,0.375,1.124c0.187,0.375,0.468,0.562,0.937,0.562
					c0.843,0,1.499-0.375,2.061-0.937c0.562-0.562,0.749-1.311,0.937-2.061c0.187-1.124,0.281-2.155,0.468-3.279
					c0.094-0.562,0.187-1.124,0.187-1.593c0-0.281,0-0.562,0-0.843v0.187c0.187-0.187,0.187-0.468,0.187-0.656
					c0.094-0.843,0.094-1.686,0.187-2.529c0-0.468,0.094-1.03,0.094-1.499c0-0.562,0.094-1.124,0.094-1.593
					c0-0.375,0-0.843,0.187-1.218c0.281-0.562,0.656-0.843,1.218-1.124c0.468-0.281,1.03-0.281,1.593-0.187
					c0.375,0.094,0.749,0.187,0.937,0.468c0.094,0.187,0.375,0.375,0.375,0.656c0,0.094,0,0.187,0,0.281
					c0,0.281,0,0.656-0.094,0.937c0,0.094,0.094,0.281,0.094,0.375s-0.187,0.094-0.094,0.281c0.094,0.094,0,0.281-0.094,0.468
					c-0.094,0.187-0.094,0.375,0,0.562c0.094,0.281,0,0.562,0,0.843c0,0.281-0.094,0.562-0.187,0.843c0,0.094-0.094,0.187,0,0.281
					c-0.281,0.375-0.187,0.749-0.187,1.124c-0.094,1.124-0.187,2.155-0.281,3.279c-0.094,0.843-0.094,1.686-0.187,2.529
					c0,0.187-0.094,0.375-0.094,0.562c0,0.562-0.094,1.124-0.094,1.593c0,0.187,0,0.375,0.094,0.656
					c0.094,0.187,0.094,0.375,0,0.562c-0.094,0.375-0.094,0.656-0.094,1.03c0,0.187,0,0.375,0,0.562c0,0.375-0.094,0.656-0.094,1.03
					c0,0.375,0,0.656,0,1.03c0,0.094,0,0.094,0,0.281c0.094-0.094,0.187-0.094,0.281-0.187c0.562-0.375,1.03-0.749,1.593-1.03
					c0.937-0.562,1.874-1.218,2.81-1.78c0.281-0.187,0.562-0.375,0.843-0.468c0.562-0.375,1.124-0.749,1.686-1.124
					c0.749-0.375,1.312-0.937,2.155-1.218c0.187,0,0.281-0.187,0.375-0.281c0.281-0.094,0.281-0.468,0.656-0.375
					c0.187-0.094,0.468-0.281,0.656-0.375c0.187-0.094,0.468-0.281,0.656-0.375c0.187-0.094,0.468-0.281,0.656-0.375
					c0.187-0.094,0.468-0.281,0.656-0.375c0.281-0.187,0.656-0.375,0.937-0.562c1.124-0.656,2.248-1.311,3.372-1.874
					c0.937-0.468,1.78-1.03,2.717-1.499c1.03-0.562,1.967-1.124,2.904-1.686c0.187-0.094,0.375-0.281,0.656-0.375
					c-0.094-0.094-0.187-0.187-0.187-0.187c-0.562-0.281-0.843-0.749-1.03-1.311c-0.094-0.281-0.094-0.656-0.094-1.03
					c0-0.375,0-0.749,0-1.124V47.12c0.187-0.468,0.094-1.03,0.187-1.499c0-0.094,0-0.187,0-0.187c-0.187-0.468-0.094-0.843,0-1.312
					c0-0.094,0-0.187,0-0.375c0-0.094-0.094-0.187-0.094-0.281c0.187-0.281,0.094-0.562,0.094-0.843
					c0.094-0.281,0.094-0.562,0.094-0.843c0-0.843,0-1.686,0-2.529c0-0.281,0-0.468-0.187-0.656
					c-0.187-0.281-0.375-0.375-0.656-0.375c-0.187,0-0.375,0-0.562,0c-0.468,0-0.843,0.281-1.124,0.562
					c-0.094,0.094-0.281,0.094-0.375,0.281c-0.094,0.187-0.281,0.281-0.281,0.468c-0.094,0.187-0.187,0.281-0.281,0.375
					c-0.187,0.187-0.468,0.375-0.468,0.656c-0.094,0.094-0.281,0.281-0.375,0.375c0,0.281,0,0.562-0.281,0.749v0.187
					c0,0.281,0.094,0.562-0.094,0.749c-0.094,0.094,0.187,0.187,0.094,0.281c-0.094,0.094-0.187,0.094-0.281,0.094
					c0,0,0,0.094-0.094,0.094c0.094,0,0.187,0.094,0.187,0.094c0,0.187,0,0.375-0.094,0.562c-0.281,0.094-0.281,0.094-0.281,0.375
					c0,0.187,0.094,0.281,0.187,0.468c0.094,0.094,0,0.281-0.094,0.375c-0.187,0.094-0.187,0.281-0.375,0.375v0.281
					c0.187,0.094,0.187,0.281,0.187,0.562c0,0.094,0,0.187,0.094,0.375c-0.094,0.094-0.281,0.187-0.375,0.281
					c-0.187,0.187,0,0.281,0,0.375c-0.094,0.187-0.094,0.375-0.094,0.468c0,0.281,0,0.468,0,0.749c0,0.187-0.094,0.468,0.281,0.468
					c-0.187,0.281-0.375,0.468-0.094,0.749c-0.094,0-0.094,0.094-0.094,0.094c0.187,0.187,0.187,0.187,0.094,0.468
					c-0.094,0.187-0.187,0.375-0.094,0.562c0,0,0,0.094,0,0.187c0,0.094-0.094,0.187,0,0.187c0.187,0.187,0.094,0.375-0.094,0.562
					c-0.281,0.281-0.375,0.656-0.468,1.03c0,0.094,0,0.094-0.094,0.187c-0.281,0.281-0.656,0.562-1.03,0.749
					c-0.281,0.094-0.562,0.281-0.843,0.468c-0.468,0.187-0.937,0.187-1.405,0.094c-0.562-0.094-0.843-0.468-0.937-1.124
					c-0.094-0.468,0-0.937,0-1.405c0-0.749,0.094-1.593,0.094-2.342c0-0.937,0.094-1.78,0.094-2.717
					c0-0.749,0.094-1.499,0.094-2.248c0.094-1.03,0.094-2.061,0.187-3.091c0-0.375,0-0.656,0.094-1.03
					c0.094-0.656,0.375-1.124,0.656-1.686c0.656-0.937,1.499-1.405,2.623-1.499c0.094,0,0.094,0,0.187,0
					c0.281,0,0.562,0.094,0.843-0.094c0.187-0.094,0.375,0,0.562,0.094c0.375,0.094,0.749,0.187,1.124,0
					c0.375-0.187,0.749-0.375,1.03-0.562c0.094-0.187,0.281-0.281,0.375-0.468c0.094-0.094,0.187-0.187,0.281-0.375
					c0.281-0.281,0.562-0.562,0.937-0.937l0.094-0.094c0.562-0.375,1.218-0.749,1.874-0.937c0.468-0.187,0.937-0.281,1.499-0.187
					c0.468,0.094,0.937,0.187,1.218,0.562c0.281,0.375,0.468,0.468,0.468,0.937c0,0.187,0.094,0.281,0.281,0.375l0.094,0.094
					c-0.281,0.281-0.187,0.468,0.094,0.656c0,0.187,0,0.375,0,0.562l-0.187,0.094c-0.094,0.094-0.094,0.281-0.094,0.375
					c0,0.187,0,0.281,0,0.468c0.094,0,0.094-0.094,0.187-0.187c0,0.281-0.187,0.468,0.094,0.656c-0.094,0-0.187,0-0.281,0
					c0,0.375,0.094,0.656,0.094,1.03c-0.094,0-0.187,0-0.187,0.094c-0.094,0.187,0,0.375,0.187,0.468
					c-0.094,0.094-0.187,0.094-0.281,0.187c0.094,0.094,0.094,0.187,0.187,0.281c-0.094,0.094-0.187,0.187-0.187,0.281
					c0,0.562,0,1.124,0,1.686c0,0.094,0.094,0.281,0.187,0.375c-0.094,0.094-0.281,0.187-0.094,0.468v0.187
					c-0.094,0.281-0.094,0.281,0.187,0.375c0,0.187,0,0.375,0,0.562c0,0-0.094,0.094-0.094,0.187c0,0.187,0.094,0.375-0.094,0.562
					v0.094c0.094,0.187,0.094,0.187,0,0.375v0.094c0.094,0.094,0.187,0.094,0.281,0.187c-0.187,0.094-0.187,0.187-0.187,0.281
					s-0.094,0.281,0.094,0.375l0.094,0.094c-0.094,0.187,0.094,0.281,0.281,0.375c0,0.094-0.094,0.187-0.094,0.187
					c0,0.094-0.094,0.094-0.094,0.187c0.187,0.094,0.281,0.187,0.281,0.375c0,0,0,0.281,0.187,0.281l0.094,0.094
					c0.281,0.281,0.468,0.375,0.843,0.281c0.281-0.094,0.656-0.187,0.937-0.375c0.843-0.375,1.686-0.843,2.529-1.312
					c0.468-0.281,1.03-0.562,1.499-0.749c0.656-0.281,1.311-0.281,2.061-0.187c0.281,0,0.468,0.094,0.749,0.094
					c0.281,0,0.562,0.281,0.749,0.562c0.187,0.375,0.375,0.656,0.468,1.03v0.187c-0.094,0.187-0.187,0.281,0,0.468v-0.094H174.898z
					 M112.695,14.895c-0.937,0.281-1.593,0.749-2.248,1.405c-0.375,0.468-0.843,0.843-1.03,1.499
					c-0.187,0.468-0.468,0.937-0.749,1.405c-0.281,0.562-0.468,1.124-0.656,1.78c-0.562,1.499-1.124,2.998-1.78,4.497
					c-0.375,1.03-0.749,2.061-1.124,3.091c-0.187,0.656-0.468,1.218-0.656,1.874c-0.562,1.405-1.03,2.904-1.593,4.309
					c-0.094,0.187-0.187,0.375-0.281,0.562c-0.094,0.187-0.187,0.375-0.281,0.656c-0.094,0.281-0.187,0.656-0.281,0.937
					c-0.094,0.375-0.281,0.656-0.375,1.03c-0.187,0.749-0.375,1.499-0.656,2.248c0,0.094-0.094,0.187-0.094,0.281
					c-0.094,0.187-0.094,0.375-0.187,0.468c0,0.281,0,0.562-0.187,0.749c-0.094,0.094,0,0.187-0.094,0.281
					c0,0.187-0.094,0.281-0.094,0.468c-0.375,1.124-0.656,2.342-1.03,3.466c-0.094,0.468-0.187,1.03-0.281,1.499
					c-0.187,0.562-0.375,1.124-0.468,1.686c-0.281,1.124-0.562,2.342-0.937,3.466c0,0.187-0.094,0.375-0.187,0.562
					c-0.094,0.375-0.187,0.749-0.281,1.124c-0.094,0.375-0.187,0.656-0.281,1.03c-0.281,1.312-0.468,2.529-0.749,3.841
					c-0.187,1.03-0.468,2.061-0.562,3.091c-0.187,1.124-0.375,2.248-0.562,3.372c-0.094,0.656-0.187,1.312-0.281,1.967
					c-0.187,1.124-0.375,2.155-0.562,3.279c-0.094,0.656-0.187,1.405-0.281,2.061c0,0.187-0.094,0.375-0.187,0.562
					c-0.094-0.094-0.187-0.094-0.187-0.187c-0.094-0.094-0.094-0.094-0.094-0.187c0-0.187-0.094-0.375,0-0.656
					c0-0.187,0-0.375-0.187-0.375c0-0.468,0-0.937-0.187-1.405c0-0.094,0-0.187,0-0.281c0-0.281,0.094-0.562,0.094-0.843
					c0-0.187-0.094-0.281-0.187-0.468c-0.094-0.187-0.281-0.375-0.094-0.656c-0.094,0-0.187,0-0.281-0.094
					c0.094-0.375,0-0.749,0.187-1.03c0.187-0.375,0.094-0.656,0-0.937l-0.094-0.094c-0.094-0.375-0.281-0.656-0.281-1.03
					c0-0.375-0.094-0.656-0.187-0.937c-0.094-0.281-0.281-0.562,0-0.937c-0.187-0.375-0.187-0.375-0.281-0.937
					c0-0.187-0.094-0.375-0.187-0.656c-0.094-0.281-0.375-0.562-0.187-0.937c-0.094-0.187-0.187-0.281-0.187-0.375
					c0-0.375-0.094-0.656-0.094-1.03c-0.094-0.281-0.094-0.656-0.187-1.03c0-0.281-0.094-0.468-0.094-0.749
					c0-0.375-0.281-0.749,0-1.124c0,0,0-0.094,0-0.187c0-0.094-0.094-0.187-0.094-0.281c0.094-0.187,0-0.281-0.094-0.375
					c0-0.187,0-0.375-0.094-0.468c0-0.187-0.094-0.281-0.094-0.468c0-0.094,0-0.187,0-0.281C90.4,54.146,90.4,53.772,90.4,53.49
					c-0.094-0.656-0.187-1.218-0.281-1.874c-0.187-1.218-0.468-2.529-0.656-3.747c-0.094-0.468-0.281-0.937-0.562-1.405
					c-0.656-0.937-2.155-1.124-3.091-0.562c-0.562,0.281-0.843,0.749-1.03,1.312c-0.187,0.375-0.281,0.749-0.375,1.218
					c-0.281,0.937-0.562,1.78-0.937,2.717c0,0.187-0.094,0.281-0.187,0.468c-0.094,0.187-0.187,0.375-0.187,0.656
					c-0.094,0.187-0.187,0.375-0.187,0.656c-0.094,0.281-0.187,0.562-0.281,0.843c-0.094,0.749-0.468,1.405-0.656,2.061
					c-0.094,0.281-0.187,0.468-0.281,0.749c-0.094,0.468-0.187,0.937-0.468,1.311c-0.094,0.187-0.094,0.375-0.187,0.562
					c0,0.281-0.094,0.562-0.281,0.749c-0.094,0.094-0.187,0.281-0.187,0.468c-0.094,0.562-0.281,1.03-0.468,1.499
					c-0.187,0.375-0.281,0.749-0.375,1.218c-0.094,0.562-0.375,1.124-0.562,1.686c-0.187,0.562-0.375,1.124-0.562,1.593
					c0,0.094,0,0.187,0,0.281c0.187,0.843,0.656,1.405,1.499,1.593c0.281,0.094,0.562,0,0.749,0c0.562,0,0.937-0.281,1.312-0.656
					c0.094-0.094,0.187-0.187,0.187-0.187c0.094-0.187,0.094-0.281,0.187-0.468c0-0.094,0.094-0.094,0.094-0.187
					c0.187-0.468,0.281-0.937,0.562-1.312c0.094-0.094,0.094-0.281,0.187-0.375c0.094-0.281,0.094-0.468,0.375-0.562
					c0-0.094-0.094-0.187,0-0.187c0.094-0.281,0.281-0.562,0.375-0.749c0-0.094,0-0.094,0-0.187s0-0.281,0-0.375
					c0.281,0,0.094-0.187,0.187-0.375c0.094-0.281,0.094-0.562,0.281-0.749v-0.094c-0.094-0.375,0.281-0.562,0.281-0.843
					c0.281-0.187,0.187-0.562,0.187-0.843c0.094,0,0.187-0.094,0.187-0.094c0-0.094,0.094-0.281,0.094-0.281
					c0.187,0,0.187-0.187,0.281-0.281c0.094-0.187,0.187-0.468,0.187-0.656c0-0.094,0.094-0.187,0.187-0.187
					c0.187,0,0.281,0.094,0.375,0.187s0.187,0.187,0.094,0.375c0,0,0,0.094,0,0.187c0.094,0,0.187-0.094,0.281-0.094
					c0,0.187,0,0.375,0,0.562c-0.094,0.281,0,0.468,0,0.749c0,0.187,0,0.281,0.187,0.375c0.094,0.094,0.187,0.281,0.187,0.375
					c0,0.375,0.094,0.656,0.187,0.937c0.094,0.749,0.281,1.593,0.375,2.342c0.094,0.562,0.187,1.03,0.094,1.593
					c0,0.094,0,0.281,0.094,0.281c0.187,0.187,0.187,0.468,0.187,0.749c0,0.281,0.094,0.562,0.094,0.843
					c0.187,1.03,0.375,2.155,0.468,3.185c0.094,0.937,0.281,1.874,0.375,2.81c0.094,0.843,0.281,1.78,0.375,2.623
					c0.187,0.843,0.281,1.686,0.468,2.623c0.094,0.468,0.187,0.937,0,1.499v0.094c0.375,0.281,0.468,0.468,0.094,0.843
					c0.281-0.094,0.375,0,0.375,0.281c0.094,0.562,0.094,1.124,0.281,1.686c0,0.187,0.094,0.375,0,0.562c0,0,0,0.094,0.094,0.187
					c0,0.094,0.094,0.094,0.094,0.187c0.094,0.656,0.187,1.405,0.375,2.061c0.094,0.749,0.187,1.405,0.375,2.155
					c0.187,0.843,0.375,1.686,0.562,2.529c0.094,0.468,0.375,0.749,0.656,1.03c0.562,0.468,1.124,0.375,1.686,0.281
					c0.749-0.187,1.218-0.656,1.499-1.405c0.281-0.749,0.375-1.593,0.468-2.342c0.187-0.749,0.281-1.499,0.375-2.248
					c0.094-0.937,0.281-1.78,0.375-2.717c0.187-1.499,0.375-2.998,0.562-4.497c0.094-0.749,0.187-1.405,0.281-2.155
					c0.094-0.375,0.094-0.843,0.187-1.218c0.094-0.281,0.281-0.656,0.187-1.03c0.468-0.187,0.468-0.281,0.187-0.656l-0.094-0.187
					c0-0.187,0-0.375,0.094-0.562c0-0.375,0.094-0.843,0.094-1.218c0-0.281,0.094-0.562,0.281-0.749
					c0.094-0.094,0.187-0.281,0.187-0.468c0-0.094,0-0.187,0-0.187c0.187-0.375,0.187-0.749,0.187-1.124l-0.094-0.094
					c-0.187,0-0.187-0.094-0.187-0.281c0-0.562,0.187-1.124,0.281-1.593c0-0.187,0.094-0.468,0.094-0.656
					c0.094-0.187,0.094-0.281,0.094-0.468c0-0.187,0-0.281,0.094-0.375c0.094-0.094,0.094-0.187,0.094-0.281c0-0.375,0-0.656,0-1.03
					c0-0.187,0-0.281,0.094-0.468c0.094-0.375,0.281-0.656,0.187-1.03c0-0.094,0.094-0.281,0.094-0.375
					c0.094-0.187,0.187-0.281,0.187-0.468c0.094-0.281,0.094-0.656,0-0.937c-0.094-0.094,0-0.281,0-0.375
					c0-0.094,0.094-0.187,0.094-0.375c0-0.094,0-0.187,0.187-0.281c0.094-0.094,0.187-0.281,0.187-0.375
					c0-0.094-0.094-0.187,0-0.281v-0.187c-0.094-0.094,0-0.187,0-0.281s0-0.094,0-0.187c0-0.094,0-0.187,0-0.375
					c0.187-0.749,0.375-1.405,0.468-2.155c0.187-0.937,0.375-1.78,0.656-2.717c0.187-0.749,0.281-1.499,0.656-2.155
					c0.187-0.468,0.187-0.937,0.562-1.312v-0.094c0.094-0.281,0.187-0.656,0.281-0.937c0-0.094,0.094-0.187,0.187-0.281
					c0.375-0.187,0.375-0.656,0.468-0.937c0-0.281,0-0.468,0-0.749c0.094-0.375,0.094-0.749,0.187-1.124
					c0-0.187,0-0.468,0.094-0.656c0.094-0.187,0.187-0.375,0.281-0.562c0.094-0.094,0.094-0.187,0.094-0.375
					c0.094-0.375,0.187-0.749,0.281-1.124c0-0.094,0.094-0.187,0.094-0.187c0.094-0.187,0.187-0.375,0.281-0.562
					c0-0.094,0-0.187,0-0.187c-0.094-0.187-0.094-0.281,0-0.468c0.094-0.187,0.187-0.468,0.281-0.749c0,0,0-0.094,0-0.187
					c0-0.094,0-0.187,0-0.281c0-0.094,0.094-0.187,0.094-0.281c0.094-0.281,0.187-0.656,0.281-0.937
					c0.094-0.375,0.281-0.749,0.375-1.03c0.094-0.375,0.187-0.656,0.375-1.03c0.094-0.281,0.187-0.562,0.281-0.749
					c0.094-0.187,0.187-0.375,0.281-0.562c0.187-0.656,0.375-1.218,0.749-1.78c0.094-0.094,0.094-0.187,0.187-0.281
					c0.094-0.281,0.281-0.468,0.375-0.749c0.094-0.094,0.094-0.281,0.094-0.375c0-0.281,0-0.468,0.094-0.656
					c0.281-0.749,0.656-1.499,0.937-2.248c0.468-1.03,0.937-2.061,1.405-3.091c0.094-0.281,0.375-0.468,0.468-0.749
					c0.281-0.562,0.562-0.937,0.843-1.405c0.375-0.656,0.937-1.124,1.405-1.686c0.187-0.187,0.375-0.375,0.562-0.468
					c0.094-0.094,0.187,0,0.187-0.094c0.094-0.094,0.094-0.187,0.094-0.281l0.094-0.094c0.094-0.094,0.281-0.187,0.375-0.281
					c0.187-0.094,0.187-0.375,0.281-0.562c0-0.094,0-0.187,0.094-0.187c0.187-0.281,0.375-0.468,0.562-0.749
					c0.187-0.375,0.375-0.749,0.468-1.218c0.094-0.656,0.094-1.218-0.094-1.874c-0.281-1.124-1.03-1.874-2.155-2.248
					c-0.281-0.094-0.656-0.187-0.937-0.281h-0.656V14.895z M118.222,60.048c0.094-0.187,0.094-0.375,0.094-0.562
					c0.094-0.281,0.187-0.656,0.281-0.937c0.281-0.562,0.656-1.124,1.124-1.593c0.468-0.468,1.03-0.937,1.593-1.311
					c0.468-0.375,0.843-0.656,1.124-1.124c0.281-0.468,0.281-1.03,0.187-1.499c0-0.281-0.281-0.562-0.375-0.843
					c-0.281-0.468-0.656-0.562-1.124-0.562c-0.375,0-0.749,0.187-1.03,0.375c-0.187,0.094-0.468,0.187-0.656,0.281
					c-0.281,0.094-0.468,0.187-0.749,0.281c-0.468,0.281-0.843,0.375-1.312,0.468c-0.656,0.094-1.312,0.187-1.967,0.562
					c-0.562,0.281-1.03,0.749-1.405,1.312c-0.281,0.562-0.468,1.218-0.562,1.874c-0.094,0.843-0.094,1.593-0.094,2.436
					c0,0.375-0.094,0.843-0.094,1.218c0,0.468-0.094,0.937-0.094,1.499c0,0.187,0,0.468-0.094,0.656
					c-0.094,0.281-0.187,0.656-0.187,0.937c0,0.375-0.187,0.843,0,1.218v0.094c-0.094,0.375-0.187,0.843,0,1.218
					c0,0.094,0,0.094,0,0.187c0,0.281-0.094,0.468-0.094,0.749c0,0.468-0.187,0.843-0.094,1.218c0.094,0.375,0,0.843,0,1.218
					c0,0.375,0.094,0.656,0.281,1.03c0.281,0.468,0.749,0.749,1.218,0.656c0.843-0.187,1.686-0.562,2.436-1.312
					c0.656-0.562,0.937-1.312,0.937-2.155c0-0.375-0.094-0.749,0.094-1.124v-0.187c0-0.375-0.094-0.656,0-1.03
					c0-0.749,0.094-1.593,0.094-2.342c0-0.281,0.094-0.468,0.094-0.656c0-0.468,0-0.843,0-1.312c0-0.187,0-0.468,0.187-0.468
					C118.222,60.516,118.222,60.329,118.222,60.048z M109.51,58.549c0-0.375-0.094-0.749-0.375-1.03
					c-0.281-0.375-0.749-0.375-1.218-0.281c-0.937,0.281-1.78,0.749-2.342,1.593c-0.749,1.03-1.03,2.155-1.124,3.372
					c0,0.468-0.094,0.937-0.094,1.405c0,0.187,0,0.375,0,0.562c0,0.375,0,0.749,0,1.03c0,0.749-0.094,1.593-0.094,2.342
					c0,0.094,0,0.187-0.094,0.281c0,0.094-0.094,0.187-0.094,0.281c0,0.375,0,0.656-0.094,1.03c0,0.375-0.094,0.749-0.094,1.124
					c0,0.843-0.094,1.686-0.094,2.529c0,0.749-0.094,1.499,0,2.248c0.094,0.843,0.281,1.03,1.124,1.218
					c0.375,0,0.656-0.094,0.937-0.187c0.562-0.375,1.124-0.656,1.593-1.218l0.094-0.094c0.187,0.094,0.281-0.094,0.281-0.281
					c0.375,0,0.375-0.094,0.375-0.375h-0.281c0-0.094,0-0.187,0-0.281c0-0.187,0.094-0.281,0.094-0.468
					c0.094-0.468,0.187-0.937,0.281-1.405c0-0.094,0.094-0.187,0-0.187c-0.187-0.562,0-1.124,0-1.686c0-0.094,0-0.094,0-0.187
					c0.094-0.468,0.187-0.937,0.187-1.405c0.094-0.375,0.094-0.843,0.187-1.218c0-0.187,0-0.375,0-0.562s0-0.375,0-0.562
					c0.094-0.281,0.187-0.562,0.187-0.843c0-0.375,0.094-0.749,0.094-1.218c0-0.375,0-0.656,0.094-1.03
					c0.094-0.281,0.094-0.656,0.187-0.937c0-0.187,0.094-0.468,0.094-0.656c0-0.187,0-0.375,0.094-0.656
					c0.094-0.094,0.094-0.281,0.094-0.375c-0.094-0.187,0-0.375,0-0.468c-0.094-0.281-0.187-0.468-0.281-0.656
					c-0.094-0.281,0-0.375,0.281-0.468C109.698,58.924,109.51,58.83,109.51,58.549z M146.232,50.586
					c-0.187-0.094-0.187-0.281-0.187-0.468s0.094-0.468,0.187-0.656l0.094-0.094c-0.094-0.281,0.094-0.562-0.094-0.843
					c0-0.094,0-0.187,0-0.281s0-0.187,0-0.281c0-0.281,0-0.468,0-0.749c0-0.187-0.094-0.375,0-0.562c0.094-0.281,0-0.468,0-0.749
					s0-0.562,0-0.843c0-0.094,0-0.187,0.094-0.375c0-0.187,0.187-0.281,0.094-0.468c0-0.187,0-0.281,0-0.375
					c0.094-0.187,0.094-0.468,0.094-0.656c-0.094-0.281,0.094-0.562,0.094-0.937c0-0.281,0.094-0.562,0-0.843
					c-0.094-0.187-0.187-0.375-0.187-0.562c0-0.375-0.187-0.562-0.562-0.656c-0.281,0-0.562,0-0.843,0
					c-0.468,0.094-0.843,0.375-1.218,0.656c-0.749,0.656-1.03,1.405-1.218,2.342c-0.094,0.468-0.094,1.03-0.187,1.499
					c0,0.375-0.094,0.656-0.094,1.03c-0.094,0.843-0.187,1.593-0.187,2.436c-0.094,0.656-0.187,1.312-0.187,1.967
					c-0.187,1.405-0.281,2.81-0.375,4.216c0,0.281,0,0.468-0.094,0.749c0,0.468-0.094,0.937-0.094,1.405
					c0,0.375,0.187,0.749,0.562,1.03c0.375,0.187,0.749,0.187,1.03,0.094c0.843-0.281,1.593-0.656,2.155-1.312
					c0.375-0.281,0.468-0.749,0.749-1.03c0-0.375,0.281-0.843,0.094-1.218c0-0.094,0-0.187,0-0.281c0-0.562,0-1.124,0.094-1.78
					c0-0.281,0.094-0.656,0.094-0.937c0.094,0,0.187,0.094,0.281,0.094c-0.094-0.187-0.187-0.375-0.281-0.562
					c0.094,0.094,0.187,0.094,0.187,0.094C146.326,50.774,146.326,50.68,146.232,50.586z M107.73,51.617
					c0.281,0.094,0.562,0.187,0.843,0c0.656-0.281,1.312-0.749,1.874-1.218c0.187-0.094,0.281-0.187,0.375-0.375
					c0.187-0.281,0.375-0.562,0.562-0.843c0.281-0.562,0.375-1.03,0.187-1.686c-0.094-0.187-0.187-0.375-0.187-0.562
					c-0.094-0.187-0.187-0.281-0.375-0.375c-0.094,0-0.281,0-0.375,0c-0.468,0-0.843,0.094-1.218,0.375
					c-0.468,0.281-0.843,0.656-1.312,0.937c-0.187,0.187-0.375,0.375-0.468,0.562c-0.281,0.281-0.281,0.562-0.468,0.937
					c-0.187,0.281-0.187,0.562-0.281,0.749C106.981,50.961,107.168,51.43,107.73,51.617z M147.825,31.851
					c-0.375-0.094-0.749-0.094-1.124,0c-0.749,0.187-1.312,0.562-1.874,1.124c-0.375,0.375-0.656,0.843-0.749,1.405
					c-0.094,0.375-0.094,0.749,0.094,1.218c0.094,0.187,0.187,0.281,0.281,0.468c0.094,0.094,0.281,0.187,0.468,0.187
					c0.562,0.187,1.124,0.281,1.593-0.187l0.187-0.094c0.375-0.281,0.749-0.468,0.937-0.843c0.187-0.281,0.375-0.468,0.562-0.749
					c0.375-0.375,0.375-0.843,0.562-1.218v-0.094c-0.094-0.375-0.187-0.749-0.468-1.124
					C148.106,31.851,147.919,31.851,147.825,31.851z"/>
			</g>
		</g>
	</g>
</g>
</svg>
